<svg width="6rem" viewBox="0 0 220 462" xmlns="http://www.w3.org/2000/svg"><path d="M106.495 353.799l.095-2.799c-19.207 1.072-36.403 2.01-51.59 2.814l.134 1.474h9.246l1.072.804 3.082 101.572-.804.938-9.514.804c-.179.268-.268.536-.268.804 0 .715.402 1.027 1.206.938l23.182-1.206h2.546c.893-.179 1.206-.625.938-1.34-1.072-.447-2.68-.625-4.824-.536-2.412 0-4.11-.134-5.092-.402v-18.626l.938-1.34 19.564-.402 1.072-.536v-.536c0-.715-.179-1.206-.536-1.474l-20.1.268-.67-.536v-78.39l.938-1.072 25.594-.67.804.536c.447 5.27.76 9.29.938 12.06l1.608-.134.388-11.45 3.186-.342c1.519-.09 2.725.045 3.618.402a38686.744 38686.744 0 0117.554 58.826l.134 41.004c-.625.625-1.809.983-3.551 1.072s-2.926.313-3.551.67l.67 1.608 24.388-3.082c.179-.447.268-.804.268-1.072 0-.357-.134-.58-.402-.67l-1.206-.134c-.625 0-1.586.134-2.881.402s-2.256.402-2.881.402c-.983 0-1.697-.179-2.144-.536 0-18.67.09-33.143.268-43.416 2.055-6.879 4.065-13.4 6.03-19.564 5.45-17.51 8.576-27.336 9.38-29.48.536-1.25 1.92-1.965 4.154-2.144 3.484-.268 5.27-.402 5.36-.402l.268-1.206-.402-.402c-3.395 0-9.693.536-18.894 1.608-1.34 0-2.01.357-2.01 1.072 0 .179.045.402.134.67.983.179 1.697.268 2.144.268.893 0 3.216-.268 6.968-.804l.402.536c-8.755 29.033-13.802 44.265-15.142 45.694-7.772-24.745-13.132-41.987-16.08-51.724l.804-.804 8.308-.938c.09-.179.134-.58.134-1.206 0-.268-.179-.491-.536-.67-8.402.97-16.548 1.902-24.439 2.799zm68.617.819c-1.072-.447-2.412-.58-4.02-.402-3.216.179-4.556.268-4.02.268h-.536l-.536-1.072.134-.536 2.01-.67c16.973-.804 24.924-1.206 23.852-1.206h1.608l.402 1.072c-.447.715-2.1 1.117-4.958 1.206-1.34 0-2.323.223-2.948.67l-2.01 102.912 1.072.67 6.432-.268c.447-.09.67.357.67 1.34v.402c-5.003.625-12.551 1.34-22.646 2.144l-.536-1.34c1.161-.447 2.59-.804 4.288-1.072 2.77-.357 4.199-.536 4.288-.536l.67-.67zm4.654-16.232c3.588-10.053-2.36-25.5-13.116-34.058-10.05-7.997-11.516-19.135-2.98-22.67 5.334-2.21 7.07-.94 8.558 6.255 1.026 4.966 3.21 8.471 4.853 7.79 4.677-1.937 3.23-12.15-2.893-20.396-5.342-7.196-6.336-7.096-23.93 2.398-13.45 7.257-17.41 8.397-14.816 4.262 1.948-3.105 9.932-8.32 17.742-11.587 14.708-6.155 16.665-11.7 4.63-13.12-7.268-.858-34.142 18.458-39.475 28.373-1.922 3.573-3.259 3.962-4.373 1.272-.883-2.13 3.83-9.445 10.473-16.253 6.644-6.808 11.93-14.468 11.75-17.022-.255-3.569 1.773-4.292 8.763-3.124 14.345 2.397 13.625-5.638-.882-9.833l-13.077-3.782-6.64 13.28c-3.65 7.303-8.332 18.708-10.403 25.343l-3.764 12.064 20.688 21.3c15.642 16.105 20.504 23.167 19.93 28.953-.733 7.406-1.29 7.6-17.263 5.98-9.242-.937-18.726-4.62-21.55-8.367-3.845-5.1-6.026-5.45-9.17-1.465-3.142 3.983-9.73 2.941-27.656-4.374-31.733-12.95-42.134-20.55-48.26-35.263-3.74-8.985-7.432-12.645-13.346-13.23C5.357 280.3.303 273.013.002 261.566c-.128-4.887 5.287-8.39 26.631-17.232 21.247-8.8 28.833-13.694 36.65-23.64 5.421-6.9 9.795-14.914 9.72-17.809-.077-2.896-12.828-16.127-28.337-29.403L16.47 149.344l1.691-17.746c.93-9.76 3.345-18.488 5.364-19.395 2.02-.908 5.528-14.206 7.796-29.552 6.73-45.534 27.105-66.419 69.782-71.528 11.86-1.42 26.636-4.682 32.836-7.25 17.114-7.09 44.926-4.086 56.203 6.07 9.152 8.242 9.607 9.92 8.937 32.923-.46 15.77 1.254 27.221 4.906 32.775 3.087 4.696 5.196 12.256 4.688 16.802s-.366 10.65.315 13.561c.681 2.913-.13 6.484-1.803 7.934-1.672 1.45-1.37 6.673.674 11.606 6.123 14.782-13.858 92.586-24.958 97.184-2.695 1.117-10.505 1.555-17.354.975-19.925-1.689-19.377 7.102.887 14.244 41.847 14.747 49.314 20.942 52.776 43.785 1.766 11.651.718 13.915-8.34 18.01-5.7 2.576-12.557 6.765-15.239 9.31-3.856 3.658-5.09 3.063-5.905-2.846-.567-4.11-2.395-6.907-4.063-6.216-1.668.69-2.372 2.85-1.565 4.8.807 1.948-.395 3.24-2.672 2.871-2.55-.414-1.83 2.777 1.878 8.313 7.11 10.616 6.53 25.411-1.122 28.58-4.953 2.052-5.16 1.52-2.417-6.168zM83.083 207.23l-1.566-11.112-8.432 20.19c-7.86 18.817-7.914 21.03-.792 32.615 4.203 6.835 12.54 16.843 18.53 22.24l10.886 9.812-8.53-31.316c-4.69-17.224-9.234-36.317-10.096-42.429zm20.23 21.7c-5.81-17.857-10.258-27.525-11.725-25.49-3.134 4.347 2.908 36.461 10.148 53.941 4.963 11.981 6.136 12.981 8.357 7.126 1.51-3.98-1.306-18.76-6.78-35.578zm31.267 3.981c16.416-2.928 13.615-10.034-8.168-20.726-14.68-7.206-21.106-12.637-24.072-20.344-4.224-10.978-2.91-10.29 6.74 3.533 9.846 14.104 54.7 27.434 70.412 20.926 7.333-3.038 9.547-6.43 9.317-14.276-.167-5.66 2.27-16.707 5.415-24.549 6.471-16.135 5.968-19.957-2.6-19.732-5.33.14-5.66-.75-3.012-8.166 2.042-5.72 1.052-11.075-3.166-17.125-3.375-4.84-6.273-13.428-6.44-19.084-.26-8.89 1.186-10.578 10.684-12.457 8.85-1.75 10.52-3.3 8.585-7.969-1.564-3.776-3.87-4.4-6.622-1.79-2.322 2.203-4.753 2.722-5.402 1.154-.65-1.568 1.504-4.886 4.786-7.373 4.742-3.593 4.802-7.336.294-18.22-5.29-12.77-6.308-13.435-15.043-9.817-5.153 2.135-10.404 6.38-11.669 9.431-2.625 6.34-21.32 7.464-23.818 1.432-2.088-5.039-8.745-1.246-12.787 7.284-4.146 8.75-21.395 10.998-28.325 3.694-4.746-5.002-.017-21.468 7-24.374 2.584-1.07 3.236-3 1.45-4.288-5.37-3.87-17.353 15.01-19.44 30.633-1.806 13.514-2.276 14.053-6.914 7.933-6.774-8.94 5.693-42.002 17.716-46.982 11.902-4.93 22.064.89 20.273 11.612-1.125 6.73-.276 8.148 4.8 8.014 9.363-.246 11.453-8.826 3.7-15.184-3.569-2.924-6.84-6.169-7.27-7.21-1.529-3.689 18.046-9.62 24.11-7.305 5.082 1.94 4.936 1.315-.834-3.575-3.846-3.258-9.95-4.699-13.567-3.2-3.616 1.497-7.137 1.364-7.825-.296-1.135-2.74-8.012-3.087-30.03-1.515-4.188.3-2.077 1.268 4.692 2.152l12.306 1.608-6.918 6.406c-4.528 4.194-9.957 6.106-15.718 5.535-9.347-.925-17.28 5.885-25.023 21.481-3.923 7.903-1.66 19.445 2.642 13.476 6.301-8.744 4.491 14.412-2.115 27.045-2.53 4.84-7.126 9.902-10.213 11.253-3.086 1.35-5.94 4.475-6.34 6.944-.4 2.47-3.284 4.557-6.407 4.64-4.23.11-4.433 1.627-.798 5.942 2.795 3.318 3.354 6.427 1.31 7.274-1.965.814-2.637 3.738-1.493 6.5 1.177 2.842 5.078 3.775 8.997 2.152 5.242-2.17 5.805-4.185 2.325-8.317-3.37-4.002-2.79-6.836 2.184-10.652 10.888-8.354 18.316-10.466 20.264-5.763 2.547 6.148 16.411 14.084 17.982 10.292.714-1.725-1.767-5.649-5.513-8.72-3.958-3.245-7.67-10.398-8.86-17.072l-2.05-11.488 9.032 4.904c10.57 5.74 13.787 5.222 10.9-1.75-1.144-2.76.18-5.955 2.94-7.098 6.227-2.58 7.71.647 5.34 11.617-1.01 4.67-1.41 12.726-.89 17.901 1.387 13.794-3.413 24.936-12.334 28.631-4.315 1.788-7.223 4.756-6.46 6.597.762 1.84 3.173 2.605 5.358 1.7 2.184-.905 1.554 4.564-1.4 12.153-4.994 12.827-4.769 14.402 3.21 22.38 5.705 5.706 11.155 16.648 16.27 32.667 7.437 23.293 7.862 23.877 12.901 17.73 2.866-3.496 9.887-7.19 15.601-8.21zm32.087-33.848c-8.52-4.037-21.599-16.893-24.63-24.21-1.067-2.576.768-7.729 4.078-11.45 5.778-6.499 5.845-6.454 1.678 1.126-4.148 7.545-3.86 7.696 6.504 3.403 10.54-4.366 33.933-4.597 35.691-.352 1.92 4.635-7.207 31.676-11.258 33.354-2.38.987-7.81.145-12.063-1.87zm4.465-25.084c-8.08.48-15.065 1.78-15.524 2.888-1.61 3.888 22.003 4.027 26.086.154 2.648-2.512-1.138-3.603-10.562-3.042zm-2.826-18.34c1.886-1.856 6.38-3.783 9.987-4.283s2.064 1.017-3.429 3.372-8.444 2.765-6.558.91zm-30.973-27.634c-15.646-4.413-16.733-7.6-5.307-15.568 10.696-7.458 21.002-5.695 25.142 4.302 2.235 5.394 1.537 6.31-3.596 4.722-5.03-1.556-6.124-.714-5.2 4.008 1.024 5.24-.34 5.553-11.039 2.536zm7.135-28.567c-4.934-1.287-11.657.062-16.288 3.268-6.146 4.255-7.104 4.214-4.343-.185 1.948-3.105 6.097-6.73 9.22-8.057 8.394-3.565 25.78-2.268 25.108 1.874-.804 4.953-3.904 5.654-13.697 3.1zm58.841 27.035c-3.088-10.722-5.91-15.597-8.425-14.555-2.08.861-3.12 3.16-2.314 5.11.808 1.95-.718 3.188-3.39 2.755-3.476-.564-2.942 2.313 1.876 10.108 3.704 5.994 6.315 13.482 5.802 16.64-1.418 8.744 4.848 11.144 8.17 3.128 1.61-3.885.835-14.319-1.719-23.186zm-132.414 9.13c-.807-1.95-2.588-1.99-3.957-.09-1.37 1.9-2.215 4.118-1.878 4.93.336.81 2.117.851 3.957.09 1.84-.764 2.686-2.98 1.878-4.93zM56.84 59.52c2.954-7.587 9.297-16.532 14.095-19.878 4.8-3.346 7.297-7.113 5.551-8.37-1.745-1.258-.574-3.364 2.602-4.68 3.176-1.315 4.64-2.86 3.251-3.436-5.17-2.142-28.338 14.874-26.45 19.428 1.045 2.525-.878 5.742-4.273 7.15-7.614 3.153-13.874 19.414-8.864 23.025 5.69 4.101 8.287 1.662 14.088-13.239zm85.196-45.375c-3.49-1.84-6.749-2.372-7.242-1.18-1.36 3.281 5.985 7.676 10.03 6.001 2.218-.92 1.17-2.734-2.788-4.82z"/></svg>