

<svg aria-hidden="true" focusable="false" viewBox="0 0 390 351" xmlns="http://www.w3.org/2000/svg"><g fill="none" fill-rule="evenodd"><path d="M225.594 35.886c-48.647 19.07-94.175 48.742-136.134 77.347-37.635 25.658-121.804 98.381-76.31 148.879 32.192 35.731 83.157 48.996 128.075 60.402a955.846 955.846 0 00174.116 27.433c18.696 1.195 71.95 3.882 74.021-23.565 1.437-19.022-25.654-37.743-38.754-46.727-22.855-15.675-48.681-26.416-71.544-42.099-68.578-47.042 78.767-132.844 96.264-173.653 20.283-47.306-52.767-50.27-81.419-46.366-23.388 3.187-46.175 9.669-68.315 18.349" fill="#faaf92"/><path d="M68.166 22.423l137.04-12.258 111.427 296.982L163.08 321.01z" fill="#9c4527"/><path d="M157.391 6.07s-12.001 9.332-12.001 11.286c0 .978 11.58 35.495 15.566 47.558a5.592 5.592 0 005.875 3.807l59.147-5.854 1.528-14.41z" fill="#772304"/><path d="M227.377 46.786L214.213 5.473C213.257 2.49 209.8.267 206.507.535l-45.525 3.699c-3.308.267-5.196 2.927-4.25 5.91l13.164 41.313c.947 2.989 4.399 5.206 7.706 4.938l45.521-3.698c3.292-.268 5.2-2.927 4.254-5.911" fill="#b24e31"/><path d="M210.155 7.243a8.096 8.096 0 00-3.905-2.495c1.559.319 3.01 1.24 3.905 2.495" fill="#db7956"/><path d="M206.25 4.748c1.559.319 3.01 1.24 3.905 2.495a8.096 8.096 0 00-3.905-2.495zm4.995 3.817c-.833-2.624-3.817-4.542-6.698-4.306l-23.292 1.899 23.95 4.007 13.119 20.602z" fill="#db7956"/><path d="M89.499 11.76S77.502 21.09 77.502 23.04c0 .983 11.575 35.495 15.567 47.563a5.602 5.602 0 005.874 3.807l59.143-5.854 1.527-14.409z" fill="#772304"/><path d="M159.48 52.475l-13.16-41.312c-.956-2.984-4.418-5.206-7.705-4.944L93.089 9.923c-3.307.268-5.2 2.927-4.249 5.91L102 57.147c.957 2.984 4.403 5.206 7.71 4.934l45.522-3.694c3.292-.267 5.2-2.927 4.249-5.91" fill="#b24e31"/><path d="M142.262 12.932a8.073 8.073 0 00-3.904-2.495c1.558.32 3.009 1.235 3.904 2.495" fill="#db7956"/><path d="M138.358 10.437c1.558.32 3.009 1.235 3.904 2.495a8.073 8.073 0 00-3.904-2.495zm4.995 3.817c-.834-2.623-3.822-4.542-6.698-4.305l-23.298 1.893 23.956 4.012 13.118 20.603z" fill="#db7956"/><path d="M178.184 66.324s-11.996 9.331-11.996 11.286c0 .977 11.574 35.49 15.566 47.557a5.594 5.594 0 005.874 3.807l59.143-5.854 1.527-14.409z" fill="#772304"/><path d="M248.17 107.034l-13.164-41.307c-.952-2.989-4.414-5.206-7.706-4.939l-45.526 3.7c-3.302.267-5.195 2.92-4.249 5.91l13.17 41.307c.946 2.984 4.392 5.211 7.705 4.944l45.516-3.699c3.292-.273 5.206-2.927 4.254-5.916" fill="#b24e31"/><path d="M230.947 67.496a8.049 8.049 0 00-3.904-2.495c1.564.32 3.01 1.235 3.904 2.495" fill="#db7956"/><path d="M227.043 65.001c1.564.32 3.01 1.235 3.904 2.495a8.049 8.049 0 00-3.904-2.495zm4.995 3.817c-.828-2.623-3.817-4.542-6.698-4.31l-23.287 1.903 23.946 4.002 13.117 20.608z" fill="#db7956"/><path d="M110.291 72.013s-11.996 9.326-11.996 11.281c0 .977 11.574 35.495 15.566 47.558a5.6 5.6 0 005.875 3.812l59.147-5.86 1.523-14.403z" fill="#772304"/><path d="M180.272 112.724L167.114 71.41c-.952-2.984-4.42-5.2-7.706-4.938l-45.526 3.698c-3.308.273-5.2 2.927-4.244 5.911l13.164 41.313c.946 2.983 4.393 5.206 7.706 4.938l45.515-3.699c3.292-.267 5.206-2.921 4.25-5.91" fill="#b24e31"/><path d="M163.055 73.186a8.09 8.09 0 00-3.9-2.5c1.56.324 3.005 1.24 3.9 2.5" fill="#db7956"/><path d="M159.156 70.686c1.558.324 3.004 1.24 3.899 2.5a8.09 8.09 0 00-3.9-2.5zm4.99 3.817c-.84-2.619-3.823-4.537-6.698-4.306l-23.293 1.898 23.956 4.008 13.113 20.602z" fill="#db7956"/><path d="M198.976 126.572s-11.996 9.331-11.996 11.286c0 .977 11.58 35.49 15.566 47.558a5.598 5.598 0 005.875 3.806l59.147-5.854 1.528-14.403z" fill="#772304"/><path d="M268.963 167.288l-13.164-41.313c-.952-2.984-4.414-5.206-7.706-4.938l-45.52 3.698c-3.309.268-5.202 2.927-4.25 5.911l13.164 41.313c.946 2.983 4.398 5.206 7.706 4.938l45.52-3.699c3.293-.267 5.201-2.922 4.25-5.91" fill="#b24e31"/><path d="M251.745 127.745a8.096 8.096 0 00-3.904-2.495c1.558.319 3.004 1.24 3.904 2.495" fill="#db7956"/><path d="M247.84 125.25c1.56.319 3.005 1.24 3.905 2.495a8.096 8.096 0 00-3.904-2.495zm4.99 3.817c-.828-2.619-3.816-4.543-6.697-4.306l-23.288 1.898 23.951 4.008 13.118 20.602z" fill="#db7956"/><path d="M131.089 132.261s-11.996 9.327-11.996 11.281c0 .983 11.574 35.495 15.56 47.558a5.598 5.598 0 005.876 3.812l59.147-5.854 1.528-14.409z" fill="#772304"/><path d="M201.07 172.977l-13.164-41.312c-.952-2.984-4.419-5.206-7.706-4.939l-45.52 3.699c-3.308.267-5.206 2.922-4.25 5.91l13.16 41.308c.951 2.989 4.403 5.21 7.705 4.938l45.526-3.698c3.292-.263 5.2-2.922 4.249-5.906" fill="#b24e31"/><path d="M183.853 133.434a8.096 8.096 0 00-3.905-2.495c1.559.32 3.01 1.235 3.905 2.495" fill="#db7956"/><path d="M179.948 130.94c1.559.318 3.01 1.234 3.905 2.494a8.096 8.096 0 00-3.905-2.495zm4.995 3.816c-.838-2.623-3.827-4.542-6.703-4.31l-23.287 1.903 23.95 4.007 13.118 20.602z" fill="#db7956"/><path d="M219.774 186.82s-11.996 9.337-11.996 11.291c0 .973 11.574 35.49 15.566 47.558a5.606 5.606 0 005.875 3.807l59.142-5.86 1.528-14.403z" fill="#772304"/><path d="M289.76 227.536l-13.164-41.313c-.956-2.983-4.418-5.206-7.705-4.938l-45.526 3.704c-3.308.267-5.196 2.922-4.25 5.905l13.165 41.318c.951 2.984 4.398 5.2 7.706 4.938l45.52-3.698c3.292-.273 5.2-2.927 4.254-5.916" fill="#b24e31"/><path d="M272.538 187.998a8.012 8.012 0 00-3.905-2.495c1.559.32 3.01 1.235 3.905 2.495" fill="#db7956"/><path d="M268.633 185.503c1.559.32 3.01 1.235 3.905 2.495a8.012 8.012 0 00-3.905-2.495zm4.995 3.817c-.833-2.623-3.817-4.542-6.703-4.31l-23.282 1.898 23.946 4.007 13.118 20.607z" fill="#db7956"/><path d="M221.863 233.225l-13.159-41.307c-.957-2.989-4.419-5.211-7.706-4.944l-45.526 3.7c-3.307.267-5.2 2.926-4.249 5.915l13.159 41.307c.957 2.984 4.403 5.211 7.706 4.939l45.526-3.704c3.292-.262 5.2-2.922 4.249-5.906" fill="#b24e31"/><path d="M204.645 193.682a8.11 8.11 0 00-3.904-2.495c1.558.325 3.01 1.235 3.904 2.495" fill="#db7956"/><path d="M200.74 191.187c1.56.325 3.01 1.235 3.905 2.495a8.11 8.11 0 00-3.904-2.495zm4.996 3.817c-.839-2.623-3.822-4.542-6.698-4.305l-23.293 1.893 23.952 4.017 13.117 20.603z" fill="#db7956"/><path d="M240.567 247.074s-11.996 9.331-11.996 11.286c0 .977 11.58 35.49 15.566 47.557a5.594 5.594 0 005.874 3.807l59.148-5.854 1.523-14.404z" fill="#772304"/><path d="M310.553 287.784l-13.164-41.307c-.952-2.984-4.419-5.206-7.706-4.939l-45.526 3.699c-3.302.273-5.195 2.922-4.249 5.91l13.17 41.313c.946 2.984 4.392 5.206 7.705 4.934l45.52-3.694c3.288-.267 5.202-2.927 4.25-5.916" fill="#b24e31"/><path d="M293.336 248.246a8.096 8.096 0 00-3.905-2.495c1.554.32 3.004 1.24 3.905 2.495" fill="#db7956"/><path d="M289.431 245.751c1.554.32 3.004 1.24 3.905 2.495a8.096 8.096 0 00-3.905-2.495zm4.99 3.823c-.833-2.63-3.817-4.548-6.698-4.311l-23.287 1.898 23.95 4.007 13.118 20.603z" fill="#db7956"/><path d="M172.674 252.763s-11.996 9.326-11.996 11.286c0 .978 11.58 35.49 15.566 47.553a5.595 5.595 0 005.875 3.812l59.147-5.855 1.528-14.408z" fill="#772304"/><path d="M242.66 293.479l-13.163-41.318c-.952-2.984-4.42-5.2-7.706-4.933l-45.526 3.693c-3.308.273-5.2 2.932-4.25 5.916l13.165 41.308c.951 2.988 4.398 5.21 7.706 4.938l45.525-3.699c3.293-.267 5.201-2.922 4.25-5.905" fill="#b24e31"/><path d="M225.443 253.936a8.12 8.12 0 00-3.904-2.495c1.558.314 3.004 1.234 3.904 2.495" fill="#db7956"/><path d="M221.539 251.44c1.558.315 3.004 1.235 3.904 2.496a8.12 8.12 0 00-3.904-2.495zm4.99 3.818c-.834-2.629-3.823-4.542-6.698-4.31l-23.293 1.897 23.956 4.013 13.113 20.602z" fill="#db7956"/><path d="M62.836 42.686l5.33-20.263L163.08 321.01l-6.404 17.064z" fill="#772304"/><path d="M316.633 307.147l-4.8 15.638-155.157 15.289s2.67-16.709 6.404-17.064c3.73-.355 153.553-13.863 153.553-13.863" fill="#833b18"/><path d="M115.003 208.863s-6.137 19.193-.267 25.062c5.864 5.86 27.192-21.333 45.85-9.07 18.663 12.27 43.195 14.4 51.189 1.07 8-13.333 20.793-19.192 38.39-14.398 17.594 4.8 20.793-17.598 27.728-14.928 6.929 2.665 10.129-12.618.53-25.237-9.6-12.624-2.135.18-2.135.18l-150.894 21.857z" fill="#ffb94c"/><path d="M116.336 198.019s-5.335 18.488 10.663 18.133c15.994-.36 25.238-7.11 44.785 3.904 19.553 11.024 30.572-13.148 43.01-15.638 12.444-2.484 39.816 2.13 43.72-1.42 3.915-3.56 10.582-34.033 10.582-34.033z" fill="#ff9550"/><path d="M109.931 193.4s6.405-28.437 11.379-27.728c4.974.716 42.655-10.663 52.61-7.819 9.953 2.845 43.364 9.24 53.318 9.954 9.954.71 28.437-12.798 36.971-9.954 8.53 2.845 14.214 13.509 14.214 13.509L168.94 201.934s-36.256-5.695-40.52-4.265c-4.265 1.415-13.417 11.194-13.417 11.194z" fill="#fcf2de"/><path d="M115.626 193.754s9.948-22.392 15.638-20.617c5.684 1.78 36.256 6.399 38.036 6.044 1.774-.355 26.657-4.98 30.566-4.98 3.915 0 13.509 7.465 13.509 7.465l-46.21 17.068s-43.725-5.335-44.79-3.915-6.75-1.065-6.75-1.065M230.973 176.604c1.065-.268 27.46-13.601 31.724-12.264 4.264 1.332 10.659 4.265 10.659 4.265l-41.05 10.128z" fill="#efdec3"/><path d="M279.133 185.58l41.945 120.852L156.856 323.5l-27.012-111.618z" fill="#ff2d24"/><path d="M129.844 211.882l-11.909 26.837 33.057 110.908 5.864-26.127z" fill="#d81f18"/><path d="M321.078 306.432l-5.335 22.397-164.751 20.798s4.264-26.662 5.864-26.127c1.6.53 164.222-17.068 164.222-17.068" fill="#ff631f"/><path d="M144.057 221.121l17.069 88.87 147.868-9.243-132.23-17.773z" fill="#d81f18"/></g></svg>